G04 #@! TF.FileFunction,Soldermask,Top*
%FSLAX46Y46*%
G04 Gerber Fmt 4.6, Leading zero omitted, Abs format (unit mm)*
G04 Created by KiCad (PCBNEW 4.0.1-product) date Wed 24 Feb 2016 04:31:22 PM PST*
%MOMM*%
G01*
G04 APERTURE LIST*
%ADD10C,0.100000*%
%ADD11R,2.701240X0.900380*%
%ADD12R,2.899360X2.398980*%
%ADD13C,1.299160*%
%ADD14R,1.300000X1.600000*%
%ADD15O,0.700000X1.250000*%
%ADD16O,1.250000X0.700000*%
%ADD17R,2.075000X2.075000*%
%ADD18O,2.127200X2.127200*%
%ADD19R,2.127200X2.127200*%
G04 APERTURE END LIST*
D10*
D11*
X77449320Y-47399800D03*
X77449320Y-48199900D03*
X77449320Y-49000000D03*
X77449320Y-49800100D03*
X77449320Y-50600200D03*
D12*
X77350260Y-44549920D03*
X71851160Y-44549920D03*
X77350260Y-53450080D03*
X71851160Y-53450080D03*
D13*
X74850900Y-46800360D03*
X74850900Y-51199640D03*
D14*
X83400000Y-53100000D03*
X83400000Y-50900000D03*
X85200000Y-50900000D03*
X85200000Y-53100000D03*
D15*
X91128533Y-47253565D03*
X90628533Y-47253565D03*
X90128533Y-47253565D03*
X89628533Y-47253565D03*
X89128533Y-47253565D03*
X88628533Y-47253565D03*
X88128533Y-47253565D03*
D16*
X87178533Y-48203565D03*
X87178533Y-48703565D03*
X87178533Y-49203565D03*
X87178533Y-49703565D03*
X87178533Y-50203565D03*
X87178533Y-50703565D03*
X87178533Y-51203565D03*
D15*
X88128533Y-52153565D03*
X88628533Y-52153565D03*
X89128533Y-52153565D03*
X89628533Y-52153565D03*
X90128533Y-52153565D03*
X90628533Y-52153565D03*
X91128533Y-52153565D03*
D16*
X92078533Y-51203565D03*
X92078533Y-50703565D03*
X92078533Y-50203565D03*
X92078533Y-49703565D03*
X92078533Y-49203565D03*
X92078533Y-48703565D03*
X92078533Y-48203565D03*
D17*
X88791033Y-50541065D03*
X90466033Y-50541065D03*
X88791033Y-48866065D03*
X90466033Y-48866065D03*
D18*
X96460000Y-55330000D03*
D19*
X99000000Y-55330000D03*
D18*
X96460000Y-52790000D03*
X99000000Y-52790000D03*
X96460000Y-50250000D03*
X99000000Y-50250000D03*
X96460000Y-47710000D03*
X99000000Y-47710000D03*
X96460000Y-45170000D03*
X99000000Y-45170000D03*
X96460000Y-42630000D03*
D19*
X99000000Y-42630000D03*
M02*
