M48
;DRILL file {KiCad 4.0.1-product} date Wed 24 Feb 2016 04:31:34 PM PST
;FORMAT={-:-/ absolute / inch / decimal}
FMAT,2
INCH,TZ
T1C0.013
T2C0.016
T3C0.040
T4C0.035
%
G90
G05
M72
T1
X3.122Y-1.9146
X3.1575Y-1.8783
X3.4154Y-2.0768
X3.563Y-1.7815
T2
X3.1398Y-1.8307
X3.4055Y-1.8681
X3.4843Y-1.8209
X3.6319Y-2.0571
T3
X3.7976Y-1.6783
X3.7976Y-1.7783
X3.7976Y-1.8783
X3.7976Y-1.9783
X3.7976Y-2.0783
X3.7976Y-2.1783
X3.8976Y-1.6783
X3.8976Y-1.7783
X3.8976Y-1.8783
X3.8976Y-1.9783
X3.8976Y-2.0783
X3.8976Y-2.1783
T4
X2.9469Y-1.8425
X2.9469Y-2.0157
T0
M30
