G04 #@! TF.FileFunction,Copper,L2,Bot,Signal*
%FSLAX46Y46*%
G04 Gerber Fmt 4.6, Leading zero omitted, Abs format (unit mm)*
G04 Created by KiCad (PCBNEW 4.0.1-product) date Wed 24 Feb 2016 04:31:22 PM PST*
%MOMM*%
G01*
G04 APERTURE LIST*
%ADD10C,0.100000*%
%ADD11R,0.750000X1.200000*%
%ADD12O,1.727200X1.727200*%
%ADD13R,1.727200X1.727200*%
%ADD14C,0.500000*%
%ADD15C,0.440000*%
%ADD16C,0.400000*%
%ADD17C,0.250000*%
%ADD18C,0.160000*%
%ADD19C,0.254000*%
G04 APERTURE END LIST*
D10*
D11*
X87700000Y-48650000D03*
X87700000Y-50550000D03*
X89300000Y-48650000D03*
X89300000Y-50550000D03*
X90900000Y-48650000D03*
X90900000Y-50550000D03*
D12*
X96460000Y-55330000D03*
D13*
X99000000Y-55330000D03*
D12*
X96460000Y-52790000D03*
X99000000Y-52790000D03*
X96460000Y-50250000D03*
X99000000Y-50250000D03*
X96460000Y-47710000D03*
X99000000Y-47710000D03*
X96460000Y-45170000D03*
X99000000Y-45170000D03*
X96460000Y-42630000D03*
D13*
X99000000Y-42630000D03*
D14*
X86500000Y-47450000D03*
X79750000Y-46500000D03*
D15*
X86750000Y-52750000D03*
X90500000Y-45250000D03*
D14*
X92250000Y-52250000D03*
X88500000Y-46250000D03*
D15*
X80200000Y-47709990D03*
X79300000Y-48630010D03*
D16*
X85300000Y-46250000D02*
X86500000Y-47450000D01*
X86500000Y-47450000D02*
X87700000Y-48650000D01*
X96460000Y-42630000D02*
X83620000Y-42630000D01*
X83620000Y-42630000D02*
X79750000Y-46500000D01*
X87700000Y-48650000D02*
X89300000Y-48650000D01*
X80000000Y-46250000D02*
X85300000Y-46250000D01*
X79750000Y-46500000D02*
X80000000Y-46250000D01*
D17*
X92250000Y-52250000D02*
X92250000Y-50000000D01*
X92250000Y-50000000D02*
X90900000Y-48650000D01*
X95330000Y-55330000D02*
X92250000Y-52250000D01*
X96460000Y-55330000D02*
X95330000Y-55330000D01*
X90000000Y-46000000D02*
X90900000Y-46900000D01*
X90900000Y-46900000D02*
X90900000Y-48650000D01*
X88750000Y-46000000D02*
X90000000Y-46000000D01*
X88500000Y-46250000D02*
X88750000Y-46000000D01*
D18*
X79300000Y-48630010D02*
X79300000Y-48609990D01*
X79300000Y-48609990D02*
X80200000Y-47709990D01*
D19*
G36*
X101873000Y-56873000D02*
X82673669Y-56873000D01*
X80322589Y-55462352D01*
X80278704Y-55446627D01*
X80239943Y-55420728D01*
X80164600Y-55405741D01*
X80092284Y-55379829D01*
X80045723Y-55382095D01*
X80000000Y-55373000D01*
X70627000Y-55373000D01*
X70627000Y-51393041D01*
X73874151Y-51393041D01*
X74022513Y-51752105D01*
X74296990Y-52027061D01*
X74655794Y-52176050D01*
X75044301Y-52176389D01*
X75403365Y-52028027D01*
X75678321Y-51753550D01*
X75827310Y-51394746D01*
X75827649Y-51006239D01*
X75757205Y-50835750D01*
X86690000Y-50835750D01*
X86690000Y-51276309D01*
X86786673Y-51509698D01*
X86965301Y-51688327D01*
X87198690Y-51785000D01*
X87414250Y-51785000D01*
X87573000Y-51626250D01*
X87573000Y-50677000D01*
X87827000Y-50677000D01*
X87827000Y-51626250D01*
X87985750Y-51785000D01*
X88201310Y-51785000D01*
X88434699Y-51688327D01*
X88500000Y-51623026D01*
X88565301Y-51688327D01*
X88798690Y-51785000D01*
X89014250Y-51785000D01*
X89173000Y-51626250D01*
X89173000Y-50677000D01*
X89427000Y-50677000D01*
X89427000Y-51626250D01*
X89585750Y-51785000D01*
X89801310Y-51785000D01*
X90034699Y-51688327D01*
X90100000Y-51623026D01*
X90165301Y-51688327D01*
X90398690Y-51785000D01*
X90614250Y-51785000D01*
X90773000Y-51626250D01*
X90773000Y-50677000D01*
X89427000Y-50677000D01*
X89173000Y-50677000D01*
X87827000Y-50677000D01*
X87573000Y-50677000D01*
X86848750Y-50677000D01*
X86690000Y-50835750D01*
X75757205Y-50835750D01*
X75679287Y-50647175D01*
X75404810Y-50372219D01*
X75046006Y-50223230D01*
X74657499Y-50222891D01*
X74298435Y-50371253D01*
X74023479Y-50645730D01*
X73874490Y-51004534D01*
X73874151Y-51393041D01*
X70627000Y-51393041D01*
X70627000Y-48777946D01*
X78552870Y-48777946D01*
X78666355Y-49052599D01*
X78876306Y-49262917D01*
X79150761Y-49376880D01*
X79447936Y-49377140D01*
X79722589Y-49263655D01*
X79932907Y-49053704D01*
X80046870Y-48779249D01*
X80046921Y-48721497D01*
X80311330Y-48457088D01*
X80347936Y-48457120D01*
X80622589Y-48343635D01*
X80832907Y-48133684D01*
X80946870Y-47859229D01*
X80947130Y-47562054D01*
X80833645Y-47287401D01*
X80623694Y-47077083D01*
X80382666Y-46977000D01*
X84998866Y-46977000D01*
X85791253Y-47769386D01*
X85840908Y-47889560D01*
X86059290Y-48108324D01*
X86180536Y-48158670D01*
X86787676Y-48765809D01*
X86787676Y-49250000D01*
X86828577Y-49455625D01*
X86865737Y-49511238D01*
X86786673Y-49590302D01*
X86690000Y-49823691D01*
X86690000Y-50264250D01*
X86848750Y-50423000D01*
X87573000Y-50423000D01*
X87573000Y-50403000D01*
X87827000Y-50403000D01*
X87827000Y-50423000D01*
X89173000Y-50423000D01*
X89173000Y-50403000D01*
X89427000Y-50403000D01*
X89427000Y-50423000D01*
X90773000Y-50423000D01*
X90773000Y-50403000D01*
X91027000Y-50403000D01*
X91027000Y-50423000D01*
X91047000Y-50423000D01*
X91047000Y-50677000D01*
X91027000Y-50677000D01*
X91027000Y-51626250D01*
X91185750Y-51785000D01*
X91401310Y-51785000D01*
X91598000Y-51703528D01*
X91598000Y-51802977D01*
X91591676Y-51809290D01*
X91473135Y-52094767D01*
X91472866Y-52403877D01*
X91590908Y-52689560D01*
X91809290Y-52908324D01*
X92094767Y-53026865D01*
X92104806Y-53026874D01*
X94868964Y-55791031D01*
X94868966Y-55791034D01*
X95010302Y-55885471D01*
X95080491Y-55932370D01*
X95222889Y-55960695D01*
X95476697Y-56340546D01*
X95927840Y-56641990D01*
X96460000Y-56747843D01*
X96992160Y-56641990D01*
X97443303Y-56340546D01*
X97501400Y-56253598D01*
X97501400Y-56319909D01*
X97598073Y-56553298D01*
X97776701Y-56731927D01*
X98010090Y-56828600D01*
X98714250Y-56828600D01*
X98873000Y-56669850D01*
X98873000Y-55457000D01*
X99127000Y-55457000D01*
X99127000Y-56669850D01*
X99285750Y-56828600D01*
X99989910Y-56828600D01*
X100223299Y-56731927D01*
X100401927Y-56553298D01*
X100498600Y-56319909D01*
X100498600Y-55615750D01*
X100339850Y-55457000D01*
X99127000Y-55457000D01*
X98873000Y-55457000D01*
X98853000Y-55457000D01*
X98853000Y-55203000D01*
X98873000Y-55203000D01*
X98873000Y-55183000D01*
X99127000Y-55183000D01*
X99127000Y-55203000D01*
X100339850Y-55203000D01*
X100498600Y-55044250D01*
X100498600Y-54340091D01*
X100401927Y-54106702D01*
X100223299Y-53928073D01*
X99989910Y-53831400D01*
X99937127Y-53831400D01*
X99983303Y-53800546D01*
X100284747Y-53349403D01*
X100390600Y-52817243D01*
X100390600Y-52762757D01*
X100284747Y-52230597D01*
X99983303Y-51779454D01*
X99595003Y-51520000D01*
X99983303Y-51260546D01*
X100284747Y-50809403D01*
X100390600Y-50277243D01*
X100390600Y-50222757D01*
X100284747Y-49690597D01*
X99983303Y-49239454D01*
X99595002Y-48980000D01*
X99983303Y-48720546D01*
X100284747Y-48269403D01*
X100390600Y-47737243D01*
X100390600Y-47682757D01*
X100284747Y-47150597D01*
X99983303Y-46699454D01*
X99595002Y-46440000D01*
X99983303Y-46180546D01*
X100284747Y-45729403D01*
X100390600Y-45197243D01*
X100390600Y-45142757D01*
X100284747Y-44610597D01*
X99983303Y-44159454D01*
X99937127Y-44128600D01*
X99989910Y-44128600D01*
X100223299Y-44031927D01*
X100401927Y-43853298D01*
X100498600Y-43619909D01*
X100498600Y-42915750D01*
X100339850Y-42757000D01*
X99127000Y-42757000D01*
X99127000Y-42777000D01*
X98873000Y-42777000D01*
X98873000Y-42757000D01*
X98853000Y-42757000D01*
X98853000Y-42503000D01*
X98873000Y-42503000D01*
X98873000Y-41290150D01*
X99127000Y-41290150D01*
X99127000Y-42503000D01*
X100339850Y-42503000D01*
X100498600Y-42344250D01*
X100498600Y-41640091D01*
X100401927Y-41406702D01*
X100223299Y-41228073D01*
X99989910Y-41131400D01*
X99285750Y-41131400D01*
X99127000Y-41290150D01*
X98873000Y-41290150D01*
X98714250Y-41131400D01*
X98010090Y-41131400D01*
X97776701Y-41228073D01*
X97598073Y-41406702D01*
X97501400Y-41640091D01*
X97501400Y-41706402D01*
X97443303Y-41619454D01*
X96992160Y-41318010D01*
X96460000Y-41212157D01*
X95927840Y-41318010D01*
X95476697Y-41619454D01*
X95287238Y-41903000D01*
X83620000Y-41903000D01*
X83341789Y-41958340D01*
X83105933Y-42115933D01*
X83105931Y-42115936D01*
X79430612Y-45791254D01*
X79310440Y-45840908D01*
X79091676Y-46059290D01*
X78973135Y-46344767D01*
X78972866Y-46653877D01*
X79090908Y-46939560D01*
X79309290Y-47158324D01*
X79581895Y-47271520D01*
X79567093Y-47286296D01*
X79453130Y-47560751D01*
X79453097Y-47598465D01*
X79168667Y-47882895D01*
X79152064Y-47882880D01*
X78877411Y-47996365D01*
X78667093Y-48206316D01*
X78553130Y-48480771D01*
X78552870Y-48777946D01*
X70627000Y-48777946D01*
X70627000Y-46993761D01*
X73874151Y-46993761D01*
X74022513Y-47352825D01*
X74296990Y-47627781D01*
X74655794Y-47776770D01*
X75044301Y-47777109D01*
X75403365Y-47628747D01*
X75678321Y-47354270D01*
X75827310Y-46995466D01*
X75827649Y-46606959D01*
X75679287Y-46247895D01*
X75404810Y-45972939D01*
X75046006Y-45823950D01*
X74657499Y-45823611D01*
X74298435Y-45971973D01*
X74023479Y-46246450D01*
X73874490Y-46605254D01*
X73874151Y-46993761D01*
X70627000Y-46993761D01*
X70627000Y-42627000D01*
X80000000Y-42627000D01*
X80045723Y-42617905D01*
X80092284Y-42620171D01*
X80164600Y-42594259D01*
X80239943Y-42579272D01*
X80278704Y-42553373D01*
X80322589Y-42537648D01*
X82673669Y-41127000D01*
X101873000Y-41127000D01*
X101873000Y-56873000D01*
X101873000Y-56873000D01*
G37*
X101873000Y-56873000D02*
X82673669Y-56873000D01*
X80322589Y-55462352D01*
X80278704Y-55446627D01*
X80239943Y-55420728D01*
X80164600Y-55405741D01*
X80092284Y-55379829D01*
X80045723Y-55382095D01*
X80000000Y-55373000D01*
X70627000Y-55373000D01*
X70627000Y-51393041D01*
X73874151Y-51393041D01*
X74022513Y-51752105D01*
X74296990Y-52027061D01*
X74655794Y-52176050D01*
X75044301Y-52176389D01*
X75403365Y-52028027D01*
X75678321Y-51753550D01*
X75827310Y-51394746D01*
X75827649Y-51006239D01*
X75757205Y-50835750D01*
X86690000Y-50835750D01*
X86690000Y-51276309D01*
X86786673Y-51509698D01*
X86965301Y-51688327D01*
X87198690Y-51785000D01*
X87414250Y-51785000D01*
X87573000Y-51626250D01*
X87573000Y-50677000D01*
X87827000Y-50677000D01*
X87827000Y-51626250D01*
X87985750Y-51785000D01*
X88201310Y-51785000D01*
X88434699Y-51688327D01*
X88500000Y-51623026D01*
X88565301Y-51688327D01*
X88798690Y-51785000D01*
X89014250Y-51785000D01*
X89173000Y-51626250D01*
X89173000Y-50677000D01*
X89427000Y-50677000D01*
X89427000Y-51626250D01*
X89585750Y-51785000D01*
X89801310Y-51785000D01*
X90034699Y-51688327D01*
X90100000Y-51623026D01*
X90165301Y-51688327D01*
X90398690Y-51785000D01*
X90614250Y-51785000D01*
X90773000Y-51626250D01*
X90773000Y-50677000D01*
X89427000Y-50677000D01*
X89173000Y-50677000D01*
X87827000Y-50677000D01*
X87573000Y-50677000D01*
X86848750Y-50677000D01*
X86690000Y-50835750D01*
X75757205Y-50835750D01*
X75679287Y-50647175D01*
X75404810Y-50372219D01*
X75046006Y-50223230D01*
X74657499Y-50222891D01*
X74298435Y-50371253D01*
X74023479Y-50645730D01*
X73874490Y-51004534D01*
X73874151Y-51393041D01*
X70627000Y-51393041D01*
X70627000Y-48777946D01*
X78552870Y-48777946D01*
X78666355Y-49052599D01*
X78876306Y-49262917D01*
X79150761Y-49376880D01*
X79447936Y-49377140D01*
X79722589Y-49263655D01*
X79932907Y-49053704D01*
X80046870Y-48779249D01*
X80046921Y-48721497D01*
X80311330Y-48457088D01*
X80347936Y-48457120D01*
X80622589Y-48343635D01*
X80832907Y-48133684D01*
X80946870Y-47859229D01*
X80947130Y-47562054D01*
X80833645Y-47287401D01*
X80623694Y-47077083D01*
X80382666Y-46977000D01*
X84998866Y-46977000D01*
X85791253Y-47769386D01*
X85840908Y-47889560D01*
X86059290Y-48108324D01*
X86180536Y-48158670D01*
X86787676Y-48765809D01*
X86787676Y-49250000D01*
X86828577Y-49455625D01*
X86865737Y-49511238D01*
X86786673Y-49590302D01*
X86690000Y-49823691D01*
X86690000Y-50264250D01*
X86848750Y-50423000D01*
X87573000Y-50423000D01*
X87573000Y-50403000D01*
X87827000Y-50403000D01*
X87827000Y-50423000D01*
X89173000Y-50423000D01*
X89173000Y-50403000D01*
X89427000Y-50403000D01*
X89427000Y-50423000D01*
X90773000Y-50423000D01*
X90773000Y-50403000D01*
X91027000Y-50403000D01*
X91027000Y-50423000D01*
X91047000Y-50423000D01*
X91047000Y-50677000D01*
X91027000Y-50677000D01*
X91027000Y-51626250D01*
X91185750Y-51785000D01*
X91401310Y-51785000D01*
X91598000Y-51703528D01*
X91598000Y-51802977D01*
X91591676Y-51809290D01*
X91473135Y-52094767D01*
X91472866Y-52403877D01*
X91590908Y-52689560D01*
X91809290Y-52908324D01*
X92094767Y-53026865D01*
X92104806Y-53026874D01*
X94868964Y-55791031D01*
X94868966Y-55791034D01*
X95010302Y-55885471D01*
X95080491Y-55932370D01*
X95222889Y-55960695D01*
X95476697Y-56340546D01*
X95927840Y-56641990D01*
X96460000Y-56747843D01*
X96992160Y-56641990D01*
X97443303Y-56340546D01*
X97501400Y-56253598D01*
X97501400Y-56319909D01*
X97598073Y-56553298D01*
X97776701Y-56731927D01*
X98010090Y-56828600D01*
X98714250Y-56828600D01*
X98873000Y-56669850D01*
X98873000Y-55457000D01*
X99127000Y-55457000D01*
X99127000Y-56669850D01*
X99285750Y-56828600D01*
X99989910Y-56828600D01*
X100223299Y-56731927D01*
X100401927Y-56553298D01*
X100498600Y-56319909D01*
X100498600Y-55615750D01*
X100339850Y-55457000D01*
X99127000Y-55457000D01*
X98873000Y-55457000D01*
X98853000Y-55457000D01*
X98853000Y-55203000D01*
X98873000Y-55203000D01*
X98873000Y-55183000D01*
X99127000Y-55183000D01*
X99127000Y-55203000D01*
X100339850Y-55203000D01*
X100498600Y-55044250D01*
X100498600Y-54340091D01*
X100401927Y-54106702D01*
X100223299Y-53928073D01*
X99989910Y-53831400D01*
X99937127Y-53831400D01*
X99983303Y-53800546D01*
X100284747Y-53349403D01*
X100390600Y-52817243D01*
X100390600Y-52762757D01*
X100284747Y-52230597D01*
X99983303Y-51779454D01*
X99595003Y-51520000D01*
X99983303Y-51260546D01*
X100284747Y-50809403D01*
X100390600Y-50277243D01*
X100390600Y-50222757D01*
X100284747Y-49690597D01*
X99983303Y-49239454D01*
X99595002Y-48980000D01*
X99983303Y-48720546D01*
X100284747Y-48269403D01*
X100390600Y-47737243D01*
X100390600Y-47682757D01*
X100284747Y-47150597D01*
X99983303Y-46699454D01*
X99595002Y-46440000D01*
X99983303Y-46180546D01*
X100284747Y-45729403D01*
X100390600Y-45197243D01*
X100390600Y-45142757D01*
X100284747Y-44610597D01*
X99983303Y-44159454D01*
X99937127Y-44128600D01*
X99989910Y-44128600D01*
X100223299Y-44031927D01*
X100401927Y-43853298D01*
X100498600Y-43619909D01*
X100498600Y-42915750D01*
X100339850Y-42757000D01*
X99127000Y-42757000D01*
X99127000Y-42777000D01*
X98873000Y-42777000D01*
X98873000Y-42757000D01*
X98853000Y-42757000D01*
X98853000Y-42503000D01*
X98873000Y-42503000D01*
X98873000Y-41290150D01*
X99127000Y-41290150D01*
X99127000Y-42503000D01*
X100339850Y-42503000D01*
X100498600Y-42344250D01*
X100498600Y-41640091D01*
X100401927Y-41406702D01*
X100223299Y-41228073D01*
X99989910Y-41131400D01*
X99285750Y-41131400D01*
X99127000Y-41290150D01*
X98873000Y-41290150D01*
X98714250Y-41131400D01*
X98010090Y-41131400D01*
X97776701Y-41228073D01*
X97598073Y-41406702D01*
X97501400Y-41640091D01*
X97501400Y-41706402D01*
X97443303Y-41619454D01*
X96992160Y-41318010D01*
X96460000Y-41212157D01*
X95927840Y-41318010D01*
X95476697Y-41619454D01*
X95287238Y-41903000D01*
X83620000Y-41903000D01*
X83341789Y-41958340D01*
X83105933Y-42115933D01*
X83105931Y-42115936D01*
X79430612Y-45791254D01*
X79310440Y-45840908D01*
X79091676Y-46059290D01*
X78973135Y-46344767D01*
X78972866Y-46653877D01*
X79090908Y-46939560D01*
X79309290Y-47158324D01*
X79581895Y-47271520D01*
X79567093Y-47286296D01*
X79453130Y-47560751D01*
X79453097Y-47598465D01*
X79168667Y-47882895D01*
X79152064Y-47882880D01*
X78877411Y-47996365D01*
X78667093Y-48206316D01*
X78553130Y-48480771D01*
X78552870Y-48777946D01*
X70627000Y-48777946D01*
X70627000Y-46993761D01*
X73874151Y-46993761D01*
X74022513Y-47352825D01*
X74296990Y-47627781D01*
X74655794Y-47776770D01*
X75044301Y-47777109D01*
X75403365Y-47628747D01*
X75678321Y-47354270D01*
X75827310Y-46995466D01*
X75827649Y-46606959D01*
X75679287Y-46247895D01*
X75404810Y-45972939D01*
X75046006Y-45823950D01*
X74657499Y-45823611D01*
X74298435Y-45971973D01*
X74023479Y-46246450D01*
X73874490Y-46605254D01*
X73874151Y-46993761D01*
X70627000Y-46993761D01*
X70627000Y-42627000D01*
X80000000Y-42627000D01*
X80045723Y-42617905D01*
X80092284Y-42620171D01*
X80164600Y-42594259D01*
X80239943Y-42579272D01*
X80278704Y-42553373D01*
X80322589Y-42537648D01*
X82673669Y-41127000D01*
X101873000Y-41127000D01*
X101873000Y-56873000D01*
G36*
X95476697Y-43640546D02*
X95864997Y-43900000D01*
X95476697Y-44159454D01*
X95175253Y-44610597D01*
X95069400Y-45142757D01*
X95069400Y-45197243D01*
X95175253Y-45729403D01*
X95476697Y-46180546D01*
X95864997Y-46440000D01*
X95476697Y-46699454D01*
X95175253Y-47150597D01*
X95069400Y-47682757D01*
X95069400Y-47737243D01*
X95175253Y-48269403D01*
X95476697Y-48720546D01*
X95864997Y-48980000D01*
X95476697Y-49239454D01*
X95175253Y-49690597D01*
X95069400Y-50222757D01*
X95069400Y-50277243D01*
X95175253Y-50809403D01*
X95476697Y-51260546D01*
X95864998Y-51520000D01*
X95476697Y-51779454D01*
X95175253Y-52230597D01*
X95069400Y-52762757D01*
X95069400Y-52817243D01*
X95175253Y-53349403D01*
X95476697Y-53800546D01*
X95864998Y-54060000D01*
X95476697Y-54319454D01*
X95382499Y-54460432D01*
X93027126Y-52105058D01*
X93027134Y-52096123D01*
X92909092Y-51810440D01*
X92902000Y-51803336D01*
X92902000Y-50000000D01*
X92852369Y-49750490D01*
X92711034Y-49538966D01*
X92711031Y-49538964D01*
X91812324Y-48640256D01*
X91812324Y-48050000D01*
X91771423Y-47844375D01*
X91654945Y-47670055D01*
X91552000Y-47601269D01*
X91552000Y-46900000D01*
X91502369Y-46650490D01*
X91361034Y-46438966D01*
X91361031Y-46438964D01*
X90461034Y-45538966D01*
X90437139Y-45523000D01*
X90249510Y-45397631D01*
X90208113Y-45389396D01*
X90000000Y-45347999D01*
X89999995Y-45348000D01*
X88750000Y-45348000D01*
X88500490Y-45397631D01*
X88387838Y-45472902D01*
X88346123Y-45472866D01*
X88060440Y-45590908D01*
X87841676Y-45809290D01*
X87723135Y-46094767D01*
X87722866Y-46403877D01*
X87840908Y-46689560D01*
X88059290Y-46908324D01*
X88344767Y-47026865D01*
X88653877Y-47027134D01*
X88939560Y-46909092D01*
X89158324Y-46690710D01*
X89174398Y-46652000D01*
X89729932Y-46652000D01*
X90248000Y-47170067D01*
X90248000Y-47601269D01*
X90145055Y-47670055D01*
X90100000Y-47737484D01*
X90054945Y-47670055D01*
X89880625Y-47553577D01*
X89675000Y-47512676D01*
X88925000Y-47512676D01*
X88719375Y-47553577D01*
X88545055Y-47670055D01*
X88500000Y-47737484D01*
X88454945Y-47670055D01*
X88280625Y-47553577D01*
X88075000Y-47512676D01*
X87590810Y-47512676D01*
X87208746Y-47130613D01*
X87159092Y-47010440D01*
X86940710Y-46791676D01*
X86819463Y-46741329D01*
X85814067Y-45735933D01*
X85794511Y-45722866D01*
X85578211Y-45578340D01*
X85532052Y-45569158D01*
X85300000Y-45522999D01*
X85299995Y-45523000D01*
X81755134Y-45523000D01*
X83921133Y-43357000D01*
X95287238Y-43357000D01*
X95476697Y-43640546D01*
X95476697Y-43640546D01*
G37*
X95476697Y-43640546D02*
X95864997Y-43900000D01*
X95476697Y-44159454D01*
X95175253Y-44610597D01*
X95069400Y-45142757D01*
X95069400Y-45197243D01*
X95175253Y-45729403D01*
X95476697Y-46180546D01*
X95864997Y-46440000D01*
X95476697Y-46699454D01*
X95175253Y-47150597D01*
X95069400Y-47682757D01*
X95069400Y-47737243D01*
X95175253Y-48269403D01*
X95476697Y-48720546D01*
X95864997Y-48980000D01*
X95476697Y-49239454D01*
X95175253Y-49690597D01*
X95069400Y-50222757D01*
X95069400Y-50277243D01*
X95175253Y-50809403D01*
X95476697Y-51260546D01*
X95864998Y-51520000D01*
X95476697Y-51779454D01*
X95175253Y-52230597D01*
X95069400Y-52762757D01*
X95069400Y-52817243D01*
X95175253Y-53349403D01*
X95476697Y-53800546D01*
X95864998Y-54060000D01*
X95476697Y-54319454D01*
X95382499Y-54460432D01*
X93027126Y-52105058D01*
X93027134Y-52096123D01*
X92909092Y-51810440D01*
X92902000Y-51803336D01*
X92902000Y-50000000D01*
X92852369Y-49750490D01*
X92711034Y-49538966D01*
X92711031Y-49538964D01*
X91812324Y-48640256D01*
X91812324Y-48050000D01*
X91771423Y-47844375D01*
X91654945Y-47670055D01*
X91552000Y-47601269D01*
X91552000Y-46900000D01*
X91502369Y-46650490D01*
X91361034Y-46438966D01*
X91361031Y-46438964D01*
X90461034Y-45538966D01*
X90437139Y-45523000D01*
X90249510Y-45397631D01*
X90208113Y-45389396D01*
X90000000Y-45347999D01*
X89999995Y-45348000D01*
X88750000Y-45348000D01*
X88500490Y-45397631D01*
X88387838Y-45472902D01*
X88346123Y-45472866D01*
X88060440Y-45590908D01*
X87841676Y-45809290D01*
X87723135Y-46094767D01*
X87722866Y-46403877D01*
X87840908Y-46689560D01*
X88059290Y-46908324D01*
X88344767Y-47026865D01*
X88653877Y-47027134D01*
X88939560Y-46909092D01*
X89158324Y-46690710D01*
X89174398Y-46652000D01*
X89729932Y-46652000D01*
X90248000Y-47170067D01*
X90248000Y-47601269D01*
X90145055Y-47670055D01*
X90100000Y-47737484D01*
X90054945Y-47670055D01*
X89880625Y-47553577D01*
X89675000Y-47512676D01*
X88925000Y-47512676D01*
X88719375Y-47553577D01*
X88545055Y-47670055D01*
X88500000Y-47737484D01*
X88454945Y-47670055D01*
X88280625Y-47553577D01*
X88075000Y-47512676D01*
X87590810Y-47512676D01*
X87208746Y-47130613D01*
X87159092Y-47010440D01*
X86940710Y-46791676D01*
X86819463Y-46741329D01*
X85814067Y-45735933D01*
X85794511Y-45722866D01*
X85578211Y-45578340D01*
X85532052Y-45569158D01*
X85300000Y-45522999D01*
X85299995Y-45523000D01*
X81755134Y-45523000D01*
X83921133Y-43357000D01*
X95287238Y-43357000D01*
X95476697Y-43640546D01*
M02*
